<?xml version="1.0" encoding="UTF-8"?>
<svg xmlns="http://www.w3.org/2000/svg" xmlns:xlink="http://www.w3.org/1999/xlink" width="170.47" height="127.952" viewBox="0 0 170.47 127.952">
<defs>
<clipPath id="clip-0">
<path clip-rule="nonzero" d="M 34 102 L 35 102 L 35 127.953125 L 34 127.953125 Z M 34 102 "/>
</clipPath>
<clipPath id="clip-1">
<path clip-rule="nonzero" d="M 34 102 L 35 102 L 35 127.953125 L 34 127.953125 Z M 34 102 "/>
</clipPath>
<clipPath id="clip-2">
<path clip-rule="nonzero" d="M 68 102 L 69 102 L 69 127.953125 L 68 127.953125 Z M 68 102 "/>
</clipPath>
<clipPath id="clip-3">
<path clip-rule="nonzero" d="M 68 102 L 69 102 L 69 127.953125 L 68 127.953125 Z M 68 102 "/>
</clipPath>
<clipPath id="clip-4">
<path clip-rule="nonzero" d="M 102 102 L 103 102 L 103 127.953125 L 102 127.953125 Z M 102 102 "/>
</clipPath>
<clipPath id="clip-5">
<path clip-rule="nonzero" d="M 102 102 L 103 102 L 103 127.953125 L 102 127.953125 Z M 102 102 "/>
</clipPath>
<clipPath id="clip-6">
<path clip-rule="nonzero" d="M 136 102 L 137 102 L 137 127.953125 L 136 127.953125 Z M 136 102 "/>
</clipPath>
<clipPath id="clip-7">
<path clip-rule="nonzero" d="M 136 102 L 170.46875 102 L 170.46875 103 L 136 103 Z M 136 102 "/>
</clipPath>
<clipPath id="clip-8">
<path clip-rule="nonzero" d="M 136 102 L 137 102 L 137 127.953125 L 136 127.953125 Z M 136 102 "/>
</clipPath>
<clipPath id="clip-9">
<path clip-rule="nonzero" d="M 136 76 L 170.46875 76 L 170.46875 77 L 136 77 Z M 136 76 "/>
</clipPath>
<clipPath id="clip-10">
<path clip-rule="nonzero" d="M 136 51 L 170.46875 51 L 170.46875 52 L 136 52 Z M 136 51 "/>
</clipPath>
<clipPath id="clip-11">
<path clip-rule="nonzero" d="M 136 25 L 170.46875 25 L 170.46875 26 L 136 26 Z M 136 25 "/>
</clipPath>
<clipPath id="clip-12">
<path clip-rule="nonzero" d="M 136 102 L 170.46875 102 L 170.46875 103 L 136 103 Z M 136 102 "/>
</clipPath>
<clipPath id="clip-13">
<path clip-rule="nonzero" d="M 136 76 L 170.46875 76 L 170.46875 77 L 136 77 Z M 136 76 "/>
</clipPath>
<clipPath id="clip-14">
<path clip-rule="nonzero" d="M 136 51 L 170.46875 51 L 170.46875 52 L 136 52 Z M 136 51 "/>
</clipPath>
<clipPath id="clip-15">
<path clip-rule="nonzero" d="M 136 25 L 170.46875 25 L 170.46875 26 L 136 26 Z M 136 25 "/>
</clipPath>
</defs>
<path fill="none" stroke-width="0.3985" stroke-linecap="butt" stroke-linejoin="miter" stroke="rgb(0%, 0%, 0%)" stroke-opacity="1" stroke-miterlimit="10" d="M -34.014781 -0.0001875 L 0.00084375 -0.0001875 " transform="matrix(1, 0, 0, -1, 34.214, 102.242)"/>
<path fill="none" stroke-width="0.3985" stroke-linecap="butt" stroke-linejoin="miter" stroke="rgb(0%, 0%, 0%)" stroke-opacity="1" stroke-miterlimit="10" d="M -34.014781 25.511531 L 0.00084375 25.511531 " transform="matrix(1, 0, 0, -1, 34.214, 102.242)"/>
<path fill="none" stroke-width="0.3985" stroke-linecap="butt" stroke-linejoin="miter" stroke="rgb(0%, 0%, 0%)" stroke-opacity="1" stroke-miterlimit="10" d="M -34.014781 51.02325 L 0.00084375 51.02325 " transform="matrix(1, 0, 0, -1, 34.214, 102.242)"/>
<path fill="none" stroke-width="0.3985" stroke-linecap="butt" stroke-linejoin="miter" stroke="rgb(0%, 0%, 0%)" stroke-opacity="1" stroke-miterlimit="10" d="M -34.014781 76.534969 L 0.00084375 76.534969 " transform="matrix(1, 0, 0, -1, 34.214, 102.242)"/>
<g clip-path="url(#clip-0)">
<path fill="none" stroke-width="0.3985" stroke-linecap="butt" stroke-linejoin="miter" stroke="rgb(0%, 0%, 0%)" stroke-opacity="1" stroke-miterlimit="10" d="M 0.00084375 -25.511906 L 0.00084375 -0.0001875 " transform="matrix(1, 0, 0, -1, 34.214, 102.242)"/>
</g>
<path fill="none" stroke-width="0.3985" stroke-linecap="butt" stroke-linejoin="miter" stroke="rgb(0%, 0%, 0%)" stroke-opacity="1" stroke-miterlimit="10" d="M 0.00084375 -0.0001875 L 34.016469 -0.0001875 " transform="matrix(1, 0, 0, -1, 34.214, 102.242)"/>
<path fill="none" stroke-width="0.3985" stroke-linecap="butt" stroke-linejoin="miter" stroke="rgb(0%, 0%, 0%)" stroke-opacity="1" stroke-miterlimit="10" d="M 0.00084375 -0.0001875 L 0.00084375 25.511531 " transform="matrix(1, 0, 0, -1, 34.214, 102.242)"/>
<path fill="none" stroke-width="0.3985" stroke-linecap="butt" stroke-linejoin="miter" stroke="rgb(0%, 0%, 0%)" stroke-opacity="1" stroke-miterlimit="10" d="M 0.00084375 -0.0001875 L -34.014781 -0.0001875 " transform="matrix(1, 0, 0, -1, 34.214, 102.242)"/>
<g clip-path="url(#clip-1)">
<path fill="none" stroke-width="0.3985" stroke-linecap="butt" stroke-linejoin="miter" stroke="rgb(0%, 0%, 0%)" stroke-opacity="1" stroke-miterlimit="10" d="M 0.00084375 -0.0001875 L 0.00084375 -25.511906 " transform="matrix(1, 0, 0, -1, 34.214, 102.242)"/>
</g>
<path fill="none" stroke-width="0.3985" stroke-linecap="butt" stroke-linejoin="miter" stroke="rgb(0%, 0%, 0%)" stroke-opacity="1" stroke-miterlimit="10" d="M 0.00084375 25.511531 L 34.016469 25.511531 " transform="matrix(1, 0, 0, -1, 34.214, 102.242)"/>
<path fill="none" stroke-width="0.3985" stroke-linecap="butt" stroke-linejoin="miter" stroke="rgb(0%, 0%, 0%)" stroke-opacity="1" stroke-miterlimit="10" d="M 0.00084375 25.511531 L 0.00084375 51.02325 " transform="matrix(1, 0, 0, -1, 34.214, 102.242)"/>
<path fill="none" stroke-width="0.3985" stroke-linecap="butt" stroke-linejoin="miter" stroke="rgb(0%, 0%, 0%)" stroke-opacity="1" stroke-miterlimit="10" d="M 0.00084375 25.511531 L -34.014781 25.511531 " transform="matrix(1, 0, 0, -1, 34.214, 102.242)"/>
<path fill="none" stroke-width="0.3985" stroke-linecap="butt" stroke-linejoin="miter" stroke="rgb(0%, 0%, 0%)" stroke-opacity="1" stroke-miterlimit="10" d="M 0.00084375 25.511531 L 0.00084375 -0.0001875 " transform="matrix(1, 0, 0, -1, 34.214, 102.242)"/>
<path fill="none" stroke-width="0.3985" stroke-linecap="butt" stroke-linejoin="miter" stroke="rgb(0%, 0%, 0%)" stroke-opacity="1" stroke-miterlimit="10" d="M 0.00084375 51.02325 L 34.016469 51.02325 " transform="matrix(1, 0, 0, -1, 34.214, 102.242)"/>
<path fill="none" stroke-width="0.3985" stroke-linecap="butt" stroke-linejoin="miter" stroke="rgb(0%, 0%, 0%)" stroke-opacity="1" stroke-miterlimit="10" d="M 0.00084375 51.02325 L 0.00084375 76.534969 " transform="matrix(1, 0, 0, -1, 34.214, 102.242)"/>
<path fill="none" stroke-width="0.3985" stroke-linecap="butt" stroke-linejoin="miter" stroke="rgb(0%, 0%, 0%)" stroke-opacity="1" stroke-miterlimit="10" d="M 0.00084375 51.02325 L -34.014781 51.02325 " transform="matrix(1, 0, 0, -1, 34.214, 102.242)"/>
<path fill="none" stroke-width="0.3985" stroke-linecap="butt" stroke-linejoin="miter" stroke="rgb(0%, 0%, 0%)" stroke-opacity="1" stroke-miterlimit="10" d="M 0.00084375 51.02325 L 0.00084375 25.511531 " transform="matrix(1, 0, 0, -1, 34.214, 102.242)"/>
<path fill="none" stroke-width="0.3985" stroke-linecap="butt" stroke-linejoin="miter" stroke="rgb(0%, 0%, 0%)" stroke-opacity="1" stroke-miterlimit="10" d="M 0.00084375 76.534969 L 34.016469 76.534969 " transform="matrix(1, 0, 0, -1, 34.214, 102.242)"/>
<path fill="none" stroke-width="0.3985" stroke-linecap="butt" stroke-linejoin="miter" stroke="rgb(0%, 0%, 0%)" stroke-opacity="1" stroke-miterlimit="10" d="M 0.00084375 76.534969 L 0.00084375 102.042781 " transform="matrix(1, 0, 0, -1, 34.214, 102.242)"/>
<path fill="none" stroke-width="0.3985" stroke-linecap="butt" stroke-linejoin="miter" stroke="rgb(0%, 0%, 0%)" stroke-opacity="1" stroke-miterlimit="10" d="M 0.00084375 76.534969 L -34.014781 76.534969 " transform="matrix(1, 0, 0, -1, 34.214, 102.242)"/>
<path fill="none" stroke-width="0.3985" stroke-linecap="butt" stroke-linejoin="miter" stroke="rgb(0%, 0%, 0%)" stroke-opacity="1" stroke-miterlimit="10" d="M 0.00084375 76.534969 L 0.00084375 51.02325 " transform="matrix(1, 0, 0, -1, 34.214, 102.242)"/>
<path fill="none" stroke-width="0.3985" stroke-linecap="butt" stroke-linejoin="miter" stroke="rgb(0%, 0%, 0%)" stroke-opacity="1" stroke-miterlimit="10" d="M 0.00084375 102.042781 L 0.00084375 76.534969 " transform="matrix(1, 0, 0, -1, 34.214, 102.242)"/>
<g clip-path="url(#clip-2)">
<path fill="none" stroke-width="0.3985" stroke-linecap="butt" stroke-linejoin="miter" stroke="rgb(0%, 0%, 0%)" stroke-opacity="1" stroke-miterlimit="10" d="M 34.016469 -25.511906 L 34.016469 -0.0001875 " transform="matrix(1, 0, 0, -1, 34.214, 102.242)"/>
</g>
<path fill="none" stroke-width="0.3985" stroke-linecap="butt" stroke-linejoin="miter" stroke="rgb(0%, 0%, 0%)" stroke-opacity="1" stroke-miterlimit="10" d="M 34.016469 -0.0001875 L 68.028188 -0.0001875 " transform="matrix(1, 0, 0, -1, 34.214, 102.242)"/>
<path fill="none" stroke-width="0.3985" stroke-linecap="butt" stroke-linejoin="miter" stroke="rgb(0%, 0%, 0%)" stroke-opacity="1" stroke-miterlimit="10" d="M 34.016469 -0.0001875 L 34.016469 25.511531 " transform="matrix(1, 0, 0, -1, 34.214, 102.242)"/>
<path fill="none" stroke-width="0.3985" stroke-linecap="butt" stroke-linejoin="miter" stroke="rgb(0%, 0%, 0%)" stroke-opacity="1" stroke-miterlimit="10" d="M 34.016469 -0.0001875 L 0.00084375 -0.0001875 " transform="matrix(1, 0, 0, -1, 34.214, 102.242)"/>
<g clip-path="url(#clip-3)">
<path fill="none" stroke-width="0.3985" stroke-linecap="butt" stroke-linejoin="miter" stroke="rgb(0%, 0%, 0%)" stroke-opacity="1" stroke-miterlimit="10" d="M 34.016469 -0.0001875 L 34.016469 -25.511906 " transform="matrix(1, 0, 0, -1, 34.214, 102.242)"/>
</g>
<path fill="none" stroke-width="0.3985" stroke-linecap="butt" stroke-linejoin="miter" stroke="rgb(0%, 0%, 0%)" stroke-opacity="1" stroke-miterlimit="10" d="M 34.016469 25.511531 L 68.028188 25.511531 " transform="matrix(1, 0, 0, -1, 34.214, 102.242)"/>
<path fill="none" stroke-width="0.3985" stroke-linecap="butt" stroke-linejoin="miter" stroke="rgb(0%, 0%, 0%)" stroke-opacity="1" stroke-miterlimit="10" d="M 34.016469 25.511531 L 34.016469 51.02325 " transform="matrix(1, 0, 0, -1, 34.214, 102.242)"/>
<path fill="none" stroke-width="0.3985" stroke-linecap="butt" stroke-linejoin="miter" stroke="rgb(0%, 0%, 0%)" stroke-opacity="1" stroke-miterlimit="10" d="M 34.016469 25.511531 L 0.00084375 25.511531 " transform="matrix(1, 0, 0, -1, 34.214, 102.242)"/>
<path fill="none" stroke-width="0.3985" stroke-linecap="butt" stroke-linejoin="miter" stroke="rgb(0%, 0%, 0%)" stroke-opacity="1" stroke-miterlimit="10" d="M 34.016469 25.511531 L 34.016469 -0.0001875 " transform="matrix(1, 0, 0, -1, 34.214, 102.242)"/>
<path fill="none" stroke-width="0.3985" stroke-linecap="butt" stroke-linejoin="miter" stroke="rgb(0%, 0%, 0%)" stroke-opacity="1" stroke-miterlimit="10" d="M 34.016469 51.02325 L 68.028188 51.02325 " transform="matrix(1, 0, 0, -1, 34.214, 102.242)"/>
<path fill="none" stroke-width="0.3985" stroke-linecap="butt" stroke-linejoin="miter" stroke="rgb(0%, 0%, 0%)" stroke-opacity="1" stroke-miterlimit="10" d="M 34.016469 51.02325 L 34.016469 76.534969 " transform="matrix(1, 0, 0, -1, 34.214, 102.242)"/>
<path fill="none" stroke-width="0.3985" stroke-linecap="butt" stroke-linejoin="miter" stroke="rgb(0%, 0%, 0%)" stroke-opacity="1" stroke-miterlimit="10" d="M 34.016469 51.02325 L 0.00084375 51.02325 " transform="matrix(1, 0, 0, -1, 34.214, 102.242)"/>
<path fill="none" stroke-width="0.3985" stroke-linecap="butt" stroke-linejoin="miter" stroke="rgb(0%, 0%, 0%)" stroke-opacity="1" stroke-miterlimit="10" d="M 34.016469 51.02325 L 34.016469 25.511531 " transform="matrix(1, 0, 0, -1, 34.214, 102.242)"/>
<path fill="none" stroke-width="0.3985" stroke-linecap="butt" stroke-linejoin="miter" stroke="rgb(0%, 0%, 0%)" stroke-opacity="1" stroke-miterlimit="10" d="M 34.016469 76.534969 L 68.028188 76.534969 " transform="matrix(1, 0, 0, -1, 34.214, 102.242)"/>
<path fill="none" stroke-width="0.3985" stroke-linecap="butt" stroke-linejoin="miter" stroke="rgb(0%, 0%, 0%)" stroke-opacity="1" stroke-miterlimit="10" d="M 34.016469 76.534969 L 34.016469 102.042781 " transform="matrix(1, 0, 0, -1, 34.214, 102.242)"/>
<path fill="none" stroke-width="0.3985" stroke-linecap="butt" stroke-linejoin="miter" stroke="rgb(0%, 0%, 0%)" stroke-opacity="1" stroke-miterlimit="10" d="M 34.016469 76.534969 L 0.00084375 76.534969 " transform="matrix(1, 0, 0, -1, 34.214, 102.242)"/>
<path fill="none" stroke-width="0.3985" stroke-linecap="butt" stroke-linejoin="miter" stroke="rgb(0%, 0%, 0%)" stroke-opacity="1" stroke-miterlimit="10" d="M 34.016469 76.534969 L 34.016469 51.02325 " transform="matrix(1, 0, 0, -1, 34.214, 102.242)"/>
<path fill="none" stroke-width="0.3985" stroke-linecap="butt" stroke-linejoin="miter" stroke="rgb(0%, 0%, 0%)" stroke-opacity="1" stroke-miterlimit="10" d="M 34.016469 102.042781 L 34.016469 76.534969 " transform="matrix(1, 0, 0, -1, 34.214, 102.242)"/>
<g clip-path="url(#clip-4)">
<path fill="none" stroke-width="0.3985" stroke-linecap="butt" stroke-linejoin="miter" stroke="rgb(0%, 0%, 0%)" stroke-opacity="1" stroke-miterlimit="10" d="M 68.028188 -25.511906 L 68.028188 -0.0001875 " transform="matrix(1, 0, 0, -1, 34.214, 102.242)"/>
</g>
<path fill="none" stroke-width="0.3985" stroke-linecap="butt" stroke-linejoin="miter" stroke="rgb(0%, 0%, 0%)" stroke-opacity="1" stroke-miterlimit="10" d="M 68.028188 -0.0001875 L 102.043813 -0.0001875 " transform="matrix(1, 0, 0, -1, 34.214, 102.242)"/>
<path fill="none" stroke-width="0.3985" stroke-linecap="butt" stroke-linejoin="miter" stroke="rgb(0%, 0%, 0%)" stroke-opacity="1" stroke-miterlimit="10" d="M 68.028188 -0.0001875 L 68.028188 25.511531 " transform="matrix(1, 0, 0, -1, 34.214, 102.242)"/>
<path fill="none" stroke-width="0.3985" stroke-linecap="butt" stroke-linejoin="miter" stroke="rgb(0%, 0%, 0%)" stroke-opacity="1" stroke-miterlimit="10" d="M 68.028188 -0.0001875 L 34.016469 -0.0001875 " transform="matrix(1, 0, 0, -1, 34.214, 102.242)"/>
<g clip-path="url(#clip-5)">
<path fill="none" stroke-width="0.3985" stroke-linecap="butt" stroke-linejoin="miter" stroke="rgb(0%, 0%, 0%)" stroke-opacity="1" stroke-miterlimit="10" d="M 68.028188 -0.0001875 L 68.028188 -25.511906 " transform="matrix(1, 0, 0, -1, 34.214, 102.242)"/>
</g>
<path fill="none" stroke-width="0.3985" stroke-linecap="butt" stroke-linejoin="miter" stroke="rgb(0%, 0%, 0%)" stroke-opacity="1" stroke-miterlimit="10" d="M 68.028188 25.511531 L 102.043813 25.511531 " transform="matrix(1, 0, 0, -1, 34.214, 102.242)"/>
<path fill="none" stroke-width="0.3985" stroke-linecap="butt" stroke-linejoin="miter" stroke="rgb(0%, 0%, 0%)" stroke-opacity="1" stroke-miterlimit="10" d="M 68.028188 25.511531 L 68.028188 51.02325 " transform="matrix(1, 0, 0, -1, 34.214, 102.242)"/>
<path fill="none" stroke-width="0.3985" stroke-linecap="butt" stroke-linejoin="miter" stroke="rgb(0%, 0%, 0%)" stroke-opacity="1" stroke-miterlimit="10" d="M 68.028188 25.511531 L 34.016469 25.511531 " transform="matrix(1, 0, 0, -1, 34.214, 102.242)"/>
<path fill="none" stroke-width="0.3985" stroke-linecap="butt" stroke-linejoin="miter" stroke="rgb(0%, 0%, 0%)" stroke-opacity="1" stroke-miterlimit="10" d="M 68.028188 25.511531 L 68.028188 -0.0001875 " transform="matrix(1, 0, 0, -1, 34.214, 102.242)"/>
<path fill="none" stroke-width="0.3985" stroke-linecap="butt" stroke-linejoin="miter" stroke="rgb(0%, 0%, 0%)" stroke-opacity="1" stroke-miterlimit="10" d="M 68.028188 51.02325 L 102.043813 51.02325 " transform="matrix(1, 0, 0, -1, 34.214, 102.242)"/>
<path fill="none" stroke-width="0.3985" stroke-linecap="butt" stroke-linejoin="miter" stroke="rgb(0%, 0%, 0%)" stroke-opacity="1" stroke-miterlimit="10" d="M 68.028188 51.02325 L 68.028188 76.534969 " transform="matrix(1, 0, 0, -1, 34.214, 102.242)"/>
<path fill="none" stroke-width="0.3985" stroke-linecap="butt" stroke-linejoin="miter" stroke="rgb(0%, 0%, 0%)" stroke-opacity="1" stroke-miterlimit="10" d="M 68.028188 51.02325 L 34.016469 51.02325 " transform="matrix(1, 0, 0, -1, 34.214, 102.242)"/>
<path fill="none" stroke-width="0.3985" stroke-linecap="butt" stroke-linejoin="miter" stroke="rgb(0%, 0%, 0%)" stroke-opacity="1" stroke-miterlimit="10" d="M 68.028188 51.02325 L 68.028188 25.511531 " transform="matrix(1, 0, 0, -1, 34.214, 102.242)"/>
<path fill="none" stroke-width="0.3985" stroke-linecap="butt" stroke-linejoin="miter" stroke="rgb(0%, 0%, 0%)" stroke-opacity="1" stroke-miterlimit="10" d="M 68.028188 76.534969 L 102.043813 76.534969 " transform="matrix(1, 0, 0, -1, 34.214, 102.242)"/>
<path fill="none" stroke-width="0.3985" stroke-linecap="butt" stroke-linejoin="miter" stroke="rgb(0%, 0%, 0%)" stroke-opacity="1" stroke-miterlimit="10" d="M 68.028188 76.534969 L 68.028188 102.042781 " transform="matrix(1, 0, 0, -1, 34.214, 102.242)"/>
<path fill="none" stroke-width="0.3985" stroke-linecap="butt" stroke-linejoin="miter" stroke="rgb(0%, 0%, 0%)" stroke-opacity="1" stroke-miterlimit="10" d="M 68.028188 76.534969 L 34.016469 76.534969 " transform="matrix(1, 0, 0, -1, 34.214, 102.242)"/>
<path fill="none" stroke-width="0.3985" stroke-linecap="butt" stroke-linejoin="miter" stroke="rgb(0%, 0%, 0%)" stroke-opacity="1" stroke-miterlimit="10" d="M 68.028188 76.534969 L 68.028188 51.02325 " transform="matrix(1, 0, 0, -1, 34.214, 102.242)"/>
<path fill="none" stroke-width="0.3985" stroke-linecap="butt" stroke-linejoin="miter" stroke="rgb(0%, 0%, 0%)" stroke-opacity="1" stroke-miterlimit="10" d="M 68.028188 102.042781 L 68.028188 76.534969 " transform="matrix(1, 0, 0, -1, 34.214, 102.242)"/>
<g clip-path="url(#clip-6)">
<path fill="none" stroke-width="0.3985" stroke-linecap="butt" stroke-linejoin="miter" stroke="rgb(0%, 0%, 0%)" stroke-opacity="1" stroke-miterlimit="10" d="M 102.043813 -25.511906 L 102.043813 -0.0001875 " transform="matrix(1, 0, 0, -1, 34.214, 102.242)"/>
</g>
<g clip-path="url(#clip-7)">
<path fill="none" stroke-width="0.3985" stroke-linecap="butt" stroke-linejoin="miter" stroke="rgb(0%, 0%, 0%)" stroke-opacity="1" stroke-miterlimit="10" d="M 102.043813 -0.0001875 L 136.059438 -0.0001875 " transform="matrix(1, 0, 0, -1, 34.214, 102.242)"/>
</g>
<path fill="none" stroke-width="0.3985" stroke-linecap="butt" stroke-linejoin="miter" stroke="rgb(0%, 0%, 0%)" stroke-opacity="1" stroke-miterlimit="10" d="M 102.043813 -0.0001875 L 102.043813 25.511531 " transform="matrix(1, 0, 0, -1, 34.214, 102.242)"/>
<path fill="none" stroke-width="0.3985" stroke-linecap="butt" stroke-linejoin="miter" stroke="rgb(0%, 0%, 0%)" stroke-opacity="1" stroke-miterlimit="10" d="M 102.043813 -0.0001875 L 68.028188 -0.0001875 " transform="matrix(1, 0, 0, -1, 34.214, 102.242)"/>
<g clip-path="url(#clip-8)">
<path fill="none" stroke-width="0.3985" stroke-linecap="butt" stroke-linejoin="miter" stroke="rgb(0%, 0%, 0%)" stroke-opacity="1" stroke-miterlimit="10" d="M 102.043813 -0.0001875 L 102.043813 -25.511906 " transform="matrix(1, 0, 0, -1, 34.214, 102.242)"/>
</g>
<g clip-path="url(#clip-9)">
<path fill="none" stroke-width="0.3985" stroke-linecap="butt" stroke-linejoin="miter" stroke="rgb(0%, 0%, 0%)" stroke-opacity="1" stroke-miterlimit="10" d="M 102.043813 25.511531 L 136.059438 25.511531 " transform="matrix(1, 0, 0, -1, 34.214, 102.242)"/>
</g>
<path fill="none" stroke-width="0.3985" stroke-linecap="butt" stroke-linejoin="miter" stroke="rgb(0%, 0%, 0%)" stroke-opacity="1" stroke-miterlimit="10" d="M 102.043813 25.511531 L 102.043813 51.02325 " transform="matrix(1, 0, 0, -1, 34.214, 102.242)"/>
<path fill="none" stroke-width="0.3985" stroke-linecap="butt" stroke-linejoin="miter" stroke="rgb(0%, 0%, 0%)" stroke-opacity="1" stroke-miterlimit="10" d="M 102.043813 25.511531 L 68.028188 25.511531 " transform="matrix(1, 0, 0, -1, 34.214, 102.242)"/>
<path fill="none" stroke-width="0.3985" stroke-linecap="butt" stroke-linejoin="miter" stroke="rgb(0%, 0%, 0%)" stroke-opacity="1" stroke-miterlimit="10" d="M 102.043813 25.511531 L 102.043813 -0.0001875 " transform="matrix(1, 0, 0, -1, 34.214, 102.242)"/>
<g clip-path="url(#clip-10)">
<path fill="none" stroke-width="0.3985" stroke-linecap="butt" stroke-linejoin="miter" stroke="rgb(0%, 0%, 0%)" stroke-opacity="1" stroke-miterlimit="10" d="M 102.043813 51.02325 L 136.059438 51.02325 " transform="matrix(1, 0, 0, -1, 34.214, 102.242)"/>
</g>
<path fill="none" stroke-width="0.3985" stroke-linecap="butt" stroke-linejoin="miter" stroke="rgb(0%, 0%, 0%)" stroke-opacity="1" stroke-miterlimit="10" d="M 102.043813 51.02325 L 102.043813 76.534969 " transform="matrix(1, 0, 0, -1, 34.214, 102.242)"/>
<path fill="none" stroke-width="0.3985" stroke-linecap="butt" stroke-linejoin="miter" stroke="rgb(0%, 0%, 0%)" stroke-opacity="1" stroke-miterlimit="10" d="M 102.043813 51.02325 L 68.028188 51.02325 " transform="matrix(1, 0, 0, -1, 34.214, 102.242)"/>
<path fill="none" stroke-width="0.3985" stroke-linecap="butt" stroke-linejoin="miter" stroke="rgb(0%, 0%, 0%)" stroke-opacity="1" stroke-miterlimit="10" d="M 102.043813 51.02325 L 102.043813 25.511531 " transform="matrix(1, 0, 0, -1, 34.214, 102.242)"/>
<g clip-path="url(#clip-11)">
<path fill="none" stroke-width="0.3985" stroke-linecap="butt" stroke-linejoin="miter" stroke="rgb(0%, 0%, 0%)" stroke-opacity="1" stroke-miterlimit="10" d="M 102.043813 76.534969 L 136.059438 76.534969 " transform="matrix(1, 0, 0, -1, 34.214, 102.242)"/>
</g>
<path fill="none" stroke-width="0.3985" stroke-linecap="butt" stroke-linejoin="miter" stroke="rgb(0%, 0%, 0%)" stroke-opacity="1" stroke-miterlimit="10" d="M 102.043813 76.534969 L 102.043813 102.042781 " transform="matrix(1, 0, 0, -1, 34.214, 102.242)"/>
<path fill="none" stroke-width="0.3985" stroke-linecap="butt" stroke-linejoin="miter" stroke="rgb(0%, 0%, 0%)" stroke-opacity="1" stroke-miterlimit="10" d="M 102.043813 76.534969 L 68.028188 76.534969 " transform="matrix(1, 0, 0, -1, 34.214, 102.242)"/>
<path fill="none" stroke-width="0.3985" stroke-linecap="butt" stroke-linejoin="miter" stroke="rgb(0%, 0%, 0%)" stroke-opacity="1" stroke-miterlimit="10" d="M 102.043813 76.534969 L 102.043813 51.02325 " transform="matrix(1, 0, 0, -1, 34.214, 102.242)"/>
<path fill="none" stroke-width="0.3985" stroke-linecap="butt" stroke-linejoin="miter" stroke="rgb(0%, 0%, 0%)" stroke-opacity="1" stroke-miterlimit="10" d="M 102.043813 102.042781 L 102.043813 76.534969 " transform="matrix(1, 0, 0, -1, 34.214, 102.242)"/>
<g clip-path="url(#clip-12)">
<path fill="none" stroke-width="0.3985" stroke-linecap="butt" stroke-linejoin="miter" stroke="rgb(0%, 0%, 0%)" stroke-opacity="1" stroke-miterlimit="10" d="M 136.059438 -0.0001875 L 102.043813 -0.0001875 " transform="matrix(1, 0, 0, -1, 34.214, 102.242)"/>
</g>
<g clip-path="url(#clip-13)">
<path fill="none" stroke-width="0.3985" stroke-linecap="butt" stroke-linejoin="miter" stroke="rgb(0%, 0%, 0%)" stroke-opacity="1" stroke-miterlimit="10" d="M 136.059438 25.511531 L 102.043813 25.511531 " transform="matrix(1, 0, 0, -1, 34.214, 102.242)"/>
</g>
<g clip-path="url(#clip-14)">
<path fill="none" stroke-width="0.3985" stroke-linecap="butt" stroke-linejoin="miter" stroke="rgb(0%, 0%, 0%)" stroke-opacity="1" stroke-miterlimit="10" d="M 136.059438 51.02325 L 102.043813 51.02325 " transform="matrix(1, 0, 0, -1, 34.214, 102.242)"/>
</g>
<g clip-path="url(#clip-15)">
<path fill="none" stroke-width="0.3985" stroke-linecap="butt" stroke-linejoin="miter" stroke="rgb(0%, 0%, 0%)" stroke-opacity="1" stroke-miterlimit="10" d="M 136.059438 76.534969 L 102.043813 76.534969 " transform="matrix(1, 0, 0, -1, 34.214, 102.242)"/>
</g>
<path fill-rule="nonzero" fill="rgb(0%, 0%, 100%)" fill-opacity="1" stroke-width="0.3985" stroke-linecap="butt" stroke-linejoin="miter" stroke="rgb(0%, 0%, 100%)" stroke-opacity="1" stroke-miterlimit="10" d="M 1.196156 -0.0001875 C 1.196156 0.659969 0.661 1.195125 0.00084375 1.195125 C -0.659312 1.195125 -1.194469 0.659969 -1.194469 -0.0001875 C -1.194469 -0.660344 -0.659312 -1.1955 0.00084375 -1.1955 C 0.661 -1.1955 1.196156 -0.660344 1.196156 -0.0001875 Z M 1.196156 -0.0001875 " transform="matrix(1, 0, 0, -1, 34.214, 102.242)"/>
<path fill-rule="nonzero" fill="rgb(0%, 0%, 100%)" fill-opacity="1" stroke-width="0.3985" stroke-linecap="butt" stroke-linejoin="miter" stroke="rgb(0%, 0%, 100%)" stroke-opacity="1" stroke-miterlimit="10" d="M 1.196156 25.511531 C 1.196156 26.171687 0.661 26.706844 0.00084375 26.706844 C -0.659312 26.706844 -1.194469 26.171687 -1.194469 25.511531 C -1.194469 24.851375 -0.659312 24.316219 0.00084375 24.316219 C 0.661 24.316219 1.196156 24.851375 1.196156 25.511531 Z M 1.196156 25.511531 " transform="matrix(1, 0, 0, -1, 34.214, 102.242)"/>
<path fill-rule="nonzero" fill="rgb(0%, 0%, 100%)" fill-opacity="1" stroke-width="0.3985" stroke-linecap="butt" stroke-linejoin="miter" stroke="rgb(0%, 0%, 100%)" stroke-opacity="1" stroke-miterlimit="10" d="M 1.196156 51.02325 C 1.196156 51.683406 0.661 52.218562 0.00084375 52.218562 C -0.659312 52.218562 -1.194469 51.683406 -1.194469 51.02325 C -1.194469 50.363094 -0.659312 49.827937 0.00084375 49.827937 C 0.661 49.827937 1.196156 50.363094 1.196156 51.02325 Z M 1.196156 51.02325 " transform="matrix(1, 0, 0, -1, 34.214, 102.242)"/>
<path fill-rule="nonzero" fill="rgb(0%, 0%, 100%)" fill-opacity="1" stroke-width="0.3985" stroke-linecap="butt" stroke-linejoin="miter" stroke="rgb(0%, 0%, 100%)" stroke-opacity="1" stroke-miterlimit="10" d="M 1.196156 76.534969 C 1.196156 77.195125 0.661 77.730281 0.00084375 77.730281 C -0.659312 77.730281 -1.194469 77.195125 -1.194469 76.534969 C -1.194469 75.874812 -0.659312 75.339656 0.00084375 75.339656 C 0.661 75.339656 1.196156 75.874812 1.196156 76.534969 Z M 1.196156 76.534969 " transform="matrix(1, 0, 0, -1, 34.214, 102.242)"/>
<path fill-rule="nonzero" fill="rgb(0%, 0%, 100%)" fill-opacity="1" stroke-width="0.3985" stroke-linecap="butt" stroke-linejoin="miter" stroke="rgb(0%, 0%, 100%)" stroke-opacity="1" stroke-miterlimit="10" d="M 35.211781 -0.0001875 C 35.211781 0.659969 34.676625 1.195125 34.016469 1.195125 C 33.356313 1.195125 32.821156 0.659969 32.821156 -0.0001875 C 32.821156 -0.660344 33.356313 -1.1955 34.016469 -1.1955 C 34.676625 -1.1955 35.211781 -0.660344 35.211781 -0.0001875 Z M 35.211781 -0.0001875 " transform="matrix(1, 0, 0, -1, 34.214, 102.242)"/>
<path fill-rule="nonzero" fill="rgb(0%, 0%, 100%)" fill-opacity="1" stroke-width="0.3985" stroke-linecap="butt" stroke-linejoin="miter" stroke="rgb(0%, 0%, 100%)" stroke-opacity="1" stroke-miterlimit="10" d="M 35.211781 25.511531 C 35.211781 26.171687 34.676625 26.706844 34.016469 26.706844 C 33.356313 26.706844 32.821156 26.171687 32.821156 25.511531 C 32.821156 24.851375 33.356313 24.316219 34.016469 24.316219 C 34.676625 24.316219 35.211781 24.851375 35.211781 25.511531 Z M 35.211781 25.511531 " transform="matrix(1, 0, 0, -1, 34.214, 102.242)"/>
<path fill-rule="nonzero" fill="rgb(0%, 0%, 100%)" fill-opacity="1" stroke-width="0.3985" stroke-linecap="butt" stroke-linejoin="miter" stroke="rgb(0%, 0%, 100%)" stroke-opacity="1" stroke-miterlimit="10" d="M 35.211781 51.02325 C 35.211781 51.683406 34.676625 52.218562 34.016469 52.218562 C 33.356313 52.218562 32.821156 51.683406 32.821156 51.02325 C 32.821156 50.363094 33.356313 49.827937 34.016469 49.827937 C 34.676625 49.827937 35.211781 50.363094 35.211781 51.02325 Z M 35.211781 51.02325 " transform="matrix(1, 0, 0, -1, 34.214, 102.242)"/>
<path fill-rule="nonzero" fill="rgb(0%, 0%, 100%)" fill-opacity="1" stroke-width="0.3985" stroke-linecap="butt" stroke-linejoin="miter" stroke="rgb(0%, 0%, 100%)" stroke-opacity="1" stroke-miterlimit="10" d="M 35.211781 76.534969 C 35.211781 77.195125 34.676625 77.730281 34.016469 77.730281 C 33.356313 77.730281 32.821156 77.195125 32.821156 76.534969 C 32.821156 75.874812 33.356313 75.339656 34.016469 75.339656 C 34.676625 75.339656 35.211781 75.874812 35.211781 76.534969 Z M 35.211781 76.534969 " transform="matrix(1, 0, 0, -1, 34.214, 102.242)"/>
<path fill-rule="nonzero" fill="rgb(0%, 0%, 100%)" fill-opacity="1" stroke-width="0.3985" stroke-linecap="butt" stroke-linejoin="miter" stroke="rgb(0%, 0%, 100%)" stroke-opacity="1" stroke-miterlimit="10" d="M 69.2235 -0.0001875 C 69.2235 0.659969 68.688344 1.195125 68.028188 1.195125 C 67.368031 1.195125 66.832875 0.659969 66.832875 -0.0001875 C 66.832875 -0.660344 67.368031 -1.1955 68.028188 -1.1955 C 68.688344 -1.1955 69.2235 -0.660344 69.2235 -0.0001875 Z M 69.2235 -0.0001875 " transform="matrix(1, 0, 0, -1, 34.214, 102.242)"/>
<path fill-rule="nonzero" fill="rgb(0%, 0%, 100%)" fill-opacity="1" stroke-width="0.3985" stroke-linecap="butt" stroke-linejoin="miter" stroke="rgb(0%, 0%, 100%)" stroke-opacity="1" stroke-miterlimit="10" d="M 69.2235 25.511531 C 69.2235 26.171687 68.688344 26.706844 68.028188 26.706844 C 67.368031 26.706844 66.832875 26.171687 66.832875 25.511531 C 66.832875 24.851375 67.368031 24.316219 68.028188 24.316219 C 68.688344 24.316219 69.2235 24.851375 69.2235 25.511531 Z M 69.2235 25.511531 " transform="matrix(1, 0, 0, -1, 34.214, 102.242)"/>
<path fill-rule="nonzero" fill="rgb(0%, 0%, 100%)" fill-opacity="1" stroke-width="0.3985" stroke-linecap="butt" stroke-linejoin="miter" stroke="rgb(0%, 0%, 100%)" stroke-opacity="1" stroke-miterlimit="10" d="M 69.2235 51.02325 C 69.2235 51.683406 68.688344 52.218562 68.028188 52.218562 C 67.368031 52.218562 66.832875 51.683406 66.832875 51.02325 C 66.832875 50.363094 67.368031 49.827937 68.028188 49.827937 C 68.688344 49.827937 69.2235 50.363094 69.2235 51.02325 Z M 69.2235 51.02325 " transform="matrix(1, 0, 0, -1, 34.214, 102.242)"/>
<path fill-rule="nonzero" fill="rgb(0%, 0%, 100%)" fill-opacity="1" stroke-width="0.3985" stroke-linecap="butt" stroke-linejoin="miter" stroke="rgb(0%, 0%, 100%)" stroke-opacity="1" stroke-miterlimit="10" d="M 69.2235 76.534969 C 69.2235 77.195125 68.688344 77.730281 68.028188 77.730281 C 67.368031 77.730281 66.832875 77.195125 66.832875 76.534969 C 66.832875 75.874812 67.368031 75.339656 68.028188 75.339656 C 68.688344 75.339656 69.2235 75.874812 69.2235 76.534969 Z M 69.2235 76.534969 " transform="matrix(1, 0, 0, -1, 34.214, 102.242)"/>
<path fill-rule="nonzero" fill="rgb(0%, 0%, 100%)" fill-opacity="1" stroke-width="0.3985" stroke-linecap="butt" stroke-linejoin="miter" stroke="rgb(0%, 0%, 100%)" stroke-opacity="1" stroke-miterlimit="10" d="M 103.239125 -0.0001875 C 103.239125 0.659969 102.703969 1.195125 102.043813 1.195125 C 101.383656 1.195125 100.8485 0.659969 100.8485 -0.0001875 C 100.8485 -0.660344 101.383656 -1.1955 102.043813 -1.1955 C 102.703969 -1.1955 103.239125 -0.660344 103.239125 -0.0001875 Z M 103.239125 -0.0001875 " transform="matrix(1, 0, 0, -1, 34.214, 102.242)"/>
<path fill-rule="nonzero" fill="rgb(0%, 0%, 100%)" fill-opacity="1" stroke-width="0.3985" stroke-linecap="butt" stroke-linejoin="miter" stroke="rgb(0%, 0%, 100%)" stroke-opacity="1" stroke-miterlimit="10" d="M 103.239125 25.511531 C 103.239125 26.171687 102.703969 26.706844 102.043813 26.706844 C 101.383656 26.706844 100.8485 26.171687 100.8485 25.511531 C 100.8485 24.851375 101.383656 24.316219 102.043813 24.316219 C 102.703969 24.316219 103.239125 24.851375 103.239125 25.511531 Z M 103.239125 25.511531 " transform="matrix(1, 0, 0, -1, 34.214, 102.242)"/>
<path fill-rule="nonzero" fill="rgb(0%, 0%, 100%)" fill-opacity="1" stroke-width="0.3985" stroke-linecap="butt" stroke-linejoin="miter" stroke="rgb(0%, 0%, 100%)" stroke-opacity="1" stroke-miterlimit="10" d="M 103.239125 51.02325 C 103.239125 51.683406 102.703969 52.218562 102.043813 52.218562 C 101.383656 52.218562 100.8485 51.683406 100.8485 51.02325 C 100.8485 50.363094 101.383656 49.827937 102.043813 49.827937 C 102.703969 49.827937 103.239125 50.363094 103.239125 51.02325 Z M 103.239125 51.02325 " transform="matrix(1, 0, 0, -1, 34.214, 102.242)"/>
<path fill-rule="nonzero" fill="rgb(0%, 0%, 100%)" fill-opacity="1" stroke-width="0.3985" stroke-linecap="butt" stroke-linejoin="miter" stroke="rgb(0%, 0%, 100%)" stroke-opacity="1" stroke-miterlimit="10" d="M 103.239125 76.534969 C 103.239125 77.195125 102.703969 77.730281 102.043813 77.730281 C 101.383656 77.730281 100.8485 77.195125 100.8485 76.534969 C 100.8485 75.874812 101.383656 75.339656 102.043813 75.339656 C 102.703969 75.339656 103.239125 75.874812 103.239125 76.534969 Z M 103.239125 76.534969 " transform="matrix(1, 0, 0, -1, 34.214, 102.242)"/>
</svg>
